<svg xmlns="http://www.w3.org/2000/svg" height="40" viewBox="0 -960 960 960" width="40">
  <path d="M717.333-120H274.667v-514.667L553.333-920 596-882.667Q602.333-877 605.833-867q3.5 9.999 3.5 22.333v11.333l-44.667 198.667H850q26.667 0 46.667 20t20 46.667v81.226q0 7.107.333 14.774.333 7.666-2.333 14.666L790.667-170q-8.919 20.833-29.73 35.417Q740.126-120 717.333-120Zm-376-66.666H726l124-292.667V-568H481.333l53.334-239.334-193.334 200.667v420.001Zm0-420.001v420.001-420.001Zm-66.666-28V-568H146v381.334h128.667V-120H79.333v-514.667h195.334Z" fill="#ffffffa2"/>
</svg>